<?xml version="1.0" encoding="UTF-8"?> <svg xmlns="http://www.w3.org/2000/svg" width="322" height="161" viewBox="0 0 322 161" fill="none"><path d="M0 6C0 2.68629 2.68629 0 6 0H276C301.405 0 322 20.5949 322 46V155C322 158.314 319.314 161 316 161H46C20.5949 161 0 140.405 0 115V6Z" fill="white"></path><path d="M197.867 105.291C197.867 105.414 197.867 105.517 197.867 105.619C197.867 105.743 197.867 105.845 197.857 105.948H189.885C189.896 106.369 189.988 106.759 190.173 107.14C190.358 107.52 190.584 107.828 190.882 108.105C191.18 108.372 191.519 108.588 191.909 108.752C192.299 108.906 192.71 108.978 193.142 108.978C193.82 108.978 194.405 108.824 194.909 108.537C195.402 108.239 195.782 107.869 196.069 107.448L197.466 108.567C196.922 109.276 196.306 109.8 195.566 110.139C194.847 110.468 194.025 110.632 193.142 110.632C192.371 110.632 191.683 110.509 191.036 110.252C190.389 109.995 189.834 109.646 189.362 109.184C188.899 108.732 188.53 108.177 188.262 107.53C187.995 106.883 187.852 106.164 187.852 105.373C187.852 104.602 187.985 103.883 188.242 103.216C188.499 102.548 188.879 101.993 189.331 101.531C189.793 101.069 190.358 100.699 190.985 100.442C191.621 100.185 192.31 100.052 193.029 100.052C193.768 100.052 194.426 100.175 195.032 100.411C195.638 100.648 196.151 100.997 196.552 101.449C196.973 101.901 197.292 102.445 197.518 103.092C197.764 103.77 197.867 104.489 197.867 105.291ZM195.843 104.489C195.833 104.099 195.771 103.719 195.648 103.37C195.525 103.02 195.35 102.723 195.124 102.466C194.898 102.209 194.6 102.014 194.251 101.86C193.902 101.706 193.501 101.634 193.029 101.634C192.608 101.634 192.197 101.706 191.837 101.86C191.457 102.014 191.149 102.209 190.861 102.466C190.594 102.723 190.368 103.02 190.183 103.37C189.998 103.719 189.896 104.089 189.885 104.489H195.843Z" fill="#022D2D"></path><path d="M217.95 100.36L215.68 108.095L213.225 100.36H211.129L208.715 108.095L206.425 100.36H204.268L207.616 110.396H209.681L212.136 102.867H212.177L214.653 110.396H216.728L220.046 100.36H217.95Z" fill="#022D2D"></path><path d="M230.666 105.352C230.666 106.133 230.532 106.842 230.255 107.489C229.988 108.136 229.587 108.691 229.115 109.173C228.632 109.636 228.057 110.016 227.399 110.272C226.731 110.529 226.033 110.663 225.263 110.663C224.492 110.663 223.783 110.529 223.126 110.272C222.458 110.016 221.893 109.636 221.41 109.173C220.928 108.711 220.548 108.136 220.281 107.489C220.013 106.842 219.87 106.133 219.87 105.352C219.87 104.582 220.003 103.863 220.281 103.226C220.548 102.579 220.928 102.034 221.41 101.572C221.893 101.11 222.468 100.74 223.126 100.483C223.794 100.226 224.492 100.093 225.263 100.093C226.033 100.093 226.742 100.226 227.399 100.483C228.067 100.74 228.632 101.099 229.115 101.572C229.597 102.044 229.988 102.599 230.255 103.226C230.532 103.873 230.666 104.582 230.666 105.352ZM228.591 105.362C228.591 104.88 228.519 104.428 228.365 103.996C228.211 103.554 228.005 103.185 227.718 102.856C227.43 102.527 227.081 102.27 226.66 102.055C226.238 101.86 225.766 101.757 225.232 101.757C224.687 101.757 224.225 101.86 223.804 102.055C223.383 102.25 223.033 102.517 222.746 102.856C222.458 103.195 222.253 103.565 222.099 103.996C221.945 104.438 221.873 104.89 221.873 105.362C221.873 105.845 221.945 106.297 222.099 106.729C222.253 107.16 222.458 107.561 222.746 107.889C223.033 108.218 223.383 108.495 223.804 108.691C224.225 108.886 224.698 108.988 225.232 108.988C225.776 108.988 226.238 108.886 226.66 108.691C227.081 108.495 227.43 108.228 227.718 107.889C228.005 107.561 228.211 107.17 228.365 106.729C228.529 106.297 228.591 105.845 228.591 105.362Z" fill="#022D2D"></path><path d="M240.313 97.2568H238.32V110.395H240.313V97.2568Z" fill="#022D2D"></path><path d="M203.477 101.879V100.359H200.97V97.2568H198.998V107.426C198.998 108.464 199.255 109.244 199.748 109.779C200.241 110.302 200.97 110.559 201.915 110.559C202.234 110.559 202.521 110.528 202.819 110.487C203.056 110.446 203.271 110.395 203.466 110.323V108.679C203.312 108.741 203.148 108.782 202.973 108.834C202.758 108.875 202.562 108.895 202.388 108.895C201.895 108.895 201.525 108.762 201.299 108.505C201.073 108.248 200.97 107.817 200.97 107.211V101.89L203.477 101.879Z" fill="#022D2D"></path><path d="M236.635 100.093C235.957 100.093 235.351 100.278 234.817 100.637C234.272 100.997 233.789 101.469 233.522 102.065V100.36H231.643V110.396H233.635V105.126C233.635 104.705 233.697 104.294 233.8 103.904C233.902 103.513 234.087 103.185 234.313 102.877C234.539 102.579 234.837 102.353 235.186 102.168C235.536 101.983 235.957 101.901 236.44 101.901C236.758 101.901 237.056 101.931 237.344 102.003V100.154C237.138 100.103 236.912 100.093 236.635 100.093Z" fill="#022D2D"></path><path d="M186.579 102.579C186.425 102.086 186.199 101.665 185.891 101.285C185.573 100.925 185.203 100.617 184.73 100.412C184.268 100.196 183.703 100.083 183.056 100.083C182.697 100.083 182.337 100.124 181.998 100.237C181.669 100.34 181.351 100.473 181.063 100.648C180.776 100.833 180.539 101.028 180.313 101.264C180.087 101.49 179.861 101.747 179.728 102.014V100.371H177.858V110.407H179.851V105.075C179.851 104.079 180.108 103.267 180.601 102.682C181.094 102.076 181.741 101.778 182.532 101.778C182.994 101.778 183.375 101.87 183.672 102.035C183.97 102.199 184.196 102.425 184.361 102.713C184.525 103 184.648 103.319 184.71 103.689C184.772 104.048 184.802 104.438 184.802 104.849V110.407H186.805V104.182C186.805 103.606 186.734 103.072 186.579 102.579Z" fill="#022D2D"></path><path d="M244.545 100.36H247L242.768 105.414L246.939 110.396H244.483L240.313 105.414L244.545 100.36Z" fill="#022D2D"></path><path d="M152.547 94.7588H154.399V101.961H154.44C154.769 101.453 155.242 101.055 155.86 100.767C156.477 100.465 157.135 100.315 157.835 100.315C158.59 100.315 159.269 100.445 159.872 100.705C160.489 100.966 161.011 101.33 161.436 101.796C161.875 102.249 162.211 102.791 162.444 103.422C162.677 104.039 162.794 104.711 162.794 105.438C162.794 106.165 162.677 106.837 162.444 107.455C162.211 108.072 161.875 108.614 161.436 109.08C161.011 109.547 160.489 109.91 159.872 110.171C159.269 110.431 158.59 110.562 157.835 110.562C157.177 110.562 156.532 110.418 155.901 110.13C155.284 109.842 154.797 109.437 154.44 108.916H154.399V110.315H152.547V94.7588ZM157.609 108.833C158.103 108.833 158.548 108.751 158.946 108.586C159.344 108.408 159.68 108.175 159.954 107.887C160.229 107.585 160.441 107.228 160.592 106.817C160.743 106.391 160.819 105.932 160.819 105.438C160.819 104.944 160.743 104.492 160.592 104.08C160.441 103.655 160.229 103.298 159.954 103.01C159.68 102.708 159.344 102.475 158.946 102.31C158.548 102.132 158.103 102.043 157.609 102.043C157.115 102.043 156.669 102.132 156.271 102.31C155.873 102.475 155.537 102.708 155.263 103.01C154.989 103.298 154.776 103.655 154.625 104.08C154.474 104.492 154.399 104.944 154.399 105.438C154.399 105.932 154.474 106.391 154.625 106.817C154.776 107.228 154.989 107.585 155.263 107.887C155.537 108.175 155.873 108.408 156.271 108.586C156.669 108.751 157.115 108.833 157.609 108.833Z" fill="#022D2D"></path><path d="M162.924 100.561H165.064L167.966 108.175H168.007L170.764 100.561H172.76L168.13 112.414C167.966 112.839 167.794 113.223 167.616 113.566C167.437 113.923 167.225 114.224 166.978 114.471C166.731 114.718 166.429 114.91 166.073 115.047C165.73 115.185 165.304 115.253 164.797 115.253C164.522 115.253 164.241 115.233 163.953 115.191C163.679 115.164 163.411 115.095 163.151 114.986L163.377 113.298C163.747 113.449 164.118 113.525 164.488 113.525C164.776 113.525 165.016 113.484 165.208 113.401C165.414 113.333 165.586 113.223 165.723 113.072C165.874 112.935 165.997 112.77 166.093 112.578C166.189 112.386 166.285 112.167 166.381 111.92L166.978 110.377L162.924 100.561Z" fill="#022D2D"></path><path d="M156.19 62.1333H152.546V56.1491H156.19V53.7158C156.19 47.9389 160.459 45.0009 166.163 45.0009C167.998 44.9819 169.823 45.2558 171.571 45.8121V51.4898C170.343 51.0895 169.059 50.8828 167.768 50.8769C165.235 50.8769 164.019 52.0485 164.019 54.2746V56.1491H171.877V62.1333H163.919L163.919 81.6173H156.19L156.19 62.1333Z" fill="#022D2D"></path><path d="M97.4307 74.4044C97.4307 70.2948 100.369 67.3027 107.011 67.3027H115.176V65.6264C115.176 62.5893 113.454 61.3726 109.904 61.3726C107.011 61.3726 105.343 62.5893 105.343 64.617C105.343 64.7703 105.343 65.1758 105.389 65.6805H98.2959C98.2292 65.1935 98.1931 64.7029 98.1877 64.2115C98.1877 59.1376 102.649 56.1455 110.255 56.1455C118.222 56.1455 122.872 59.6963 122.872 66.3925V81.5962H115.167C115.385 79.9067 115.518 78.2072 115.563 76.5042H115.509C114.743 80.0551 111.904 81.9747 107.344 81.9747C101.486 82.0017 97.4307 79.4693 97.4307 74.4044ZM115.176 71.9981V71.4934H107.723C105.641 71.4934 104.379 72.4577 104.379 73.8817C104.379 75.8013 106.046 76.8197 108.84 76.8197C112.86 76.7836 115.176 75.0082 115.176 71.9981Z" fill="#022D2D"></path><path fill-rule="evenodd" clip-rule="evenodd" d="M131.458 56.1338H123.835L130.631 81.5962H136.511C135.391 84.6384 133.673 85.7634 130.969 85.7627C129.856 85.7624 128.747 85.6219 127.669 85.3445V91.2643C129.273 91.7693 130.951 91.9992 132.631 91.9444C137.473 91.9444 141.604 89.0022 143.781 81.5912L150.622 56.1338H142.98L137.302 78.8605L131.458 56.1338Z" fill="#022D2D"></path><path d="M172.837 74.4093C172.837 70.2997 175.784 67.3076 182.426 67.3076H190.582V65.6313C190.582 62.5942 188.861 61.3775 185.31 61.3775C182.426 61.3775 180.75 62.5942 180.75 64.6219C180.748 64.9771 180.766 65.3321 180.804 65.6854H173.702C173.639 65.1982 173.606 64.7076 173.603 64.2164C173.603 59.1424 178.109 56.1504 185.67 56.1504C193.628 56.1504 198.288 59.7012 198.288 66.3973V81.6011H190.573C190.779 79.9199 190.899 78.2295 190.934 76.5362H190.879C190.122 80.087 187.275 82.0066 182.714 82.0066C176.892 82.0066 172.837 79.4742 172.837 74.4093ZM190.582 72.003V71.4983H183.129C181.056 71.4983 179.785 72.4626 179.785 73.8865C179.785 75.8062 181.462 76.8246 184.291 76.8246C188.257 76.7885 190.582 75.0131 190.582 72.003Z" fill="#022D2D"></path><path d="M201.17 73.1473H208.047C208.047 75.4667 209.216 76.986 213.612 76.986C217.612 76.986 219.006 75.8263 219.006 74.0013C219.006 73.1023 218.556 72.3831 217.208 72.0775C215.286 71.7232 213.343 71.489 211.392 71.3763C207.796 71.0706 205.018 70.4773 203.507 69.4524C202.751 68.88 202.142 68.1369 201.728 67.2839C201.314 66.4309 201.107 65.492 201.125 64.544C201.125 59.1501 206.69 56.1475 213.621 56.1475C221.811 56.1475 225.56 59.2849 225.56 65.1373H218.781C218.727 62.5123 217.514 61.1458 213.72 61.1458C210.286 61.1458 208.766 62.3055 208.766 64.0226C208.72 64.5544 208.882 65.0835 209.217 65.4991C209.552 65.9146 210.035 66.1844 210.564 66.2521C212.607 66.6184 214.669 66.8705 216.74 67.0072C219.824 67.3129 222 67.6185 223.869 68.6793C224.728 69.1873 225.436 69.9129 225.924 70.7827C226.412 71.6525 226.661 72.6356 226.647 73.6327C226.647 78.8918 222.152 81.9753 213.603 81.9753C204.865 81.9394 201.17 78.1996 201.17 73.1473Z" fill="#022D2D"></path><path fill-rule="evenodd" clip-rule="evenodd" d="M232.177 47.2305L241.097 47.2519C241.087 52.1543 237.12 56.126 232.223 56.1507H246.999V62.1348H238.969V72.554C238.969 75.1405 240.194 75.9516 243.232 75.9516C244.406 75.9432 245.576 75.8255 246.728 75.6001V81.4311C245.128 81.7717 243.498 81.9558 241.862 81.9809C234.057 81.9809 231.263 78.5382 231.263 72.9596V62.1348H227.613V56.1507H232.177V47.2305Z" fill="#022D2D"></path><path d="M67.9991 56.5529H75.633L75.4802 61.6579H75.5251C76.4868 58.2246 79.6775 56.1484 83.9736 56.1484C90.9481 56.1484 95.5048 61.1097 95.5048 68.4886C95.5048 76.5775 90.9481 81.9702 83.9197 81.9702C79.3719 81.9702 76.5407 80.1007 75.4263 77.0719C75.5251 78.7346 75.6779 81.2152 75.6779 82.123V91.578H67.9991V56.5529ZM87.8653 68.7942C87.8653 64.7497 85.5375 62.0174 82.0502 62.0174C78.2125 62.0174 75.633 64.7946 75.633 68.9919V70.1064C75.633 73.7015 78.2125 76.0742 82.1042 76.0742C85.5375 76.0742 87.8653 73.1442 87.8653 68.7942Z" fill="#022D2D"></path></svg> 