<?xml version="1.0" encoding="UTF-8"?> <svg xmlns="http://www.w3.org/2000/svg" id="Layer_2" data-name="Layer 2" viewBox="0 0 112.17 40"><defs><style> .cls-1 { fill: #e54360; } .cls-2 { fill: #0069b1; } </style></defs><g id="Layer_1-2" data-name="Layer 1"><g><g id="Layer_1-2" data-name="Layer 1-2"><g><path class="cls-1" d="M105.59,6.14h-3.81l6.58,7.82-6.51,7.76h3.81l6.51-7.76-6.58-7.82Z"></path><path class="cls-2" d="M15.91,13.83c0,1.32-.2,2.43-.59,3.42-.39.99-.92,1.84-1.58,2.56-.66.66-1.45,1.18-2.3,1.58-.85.33-1.71.53-2.63.53s-2.3-.26-3.16-.79-1.51-1.18-2.1-1.91v7.04H0V6.14h3.55v2.56c.59-.79,1.25-1.51,2.1-2.04.85-.59,1.91-.85,3.16-.85s1.78.2,2.63.53,1.64.85,2.3,1.58c.66.66,1.25,1.51,1.64,2.5s.53,2.1.53,3.42h0ZM12.3,13.83c0-.79-.13-1.45-.33-2.04-.26-.59-.53-1.12-.99-1.58-.39-.46-.85-.79-1.38-.99-.53-.26-1.12-.33-1.71-.33s-1.18.13-1.71.33c-.53.26-1.05.59-1.45,1.05-.39.46-.72.92-.99,1.58-.26.59-.33,1.32-.33,2.04s.13,1.45.33,2.04c.26.59.59,1.12.99,1.58s.85.79,1.45.99c.53.26,1.12.33,1.71.33s1.18-.13,1.71-.33c.53-.26.99-.59,1.38-.99.39-.46.72-.92.99-1.58.26-.59.33-1.32.33-2.1ZM31.49,21.52h-3.48v-1.91c-.53.59-1.18,1.12-2.04,1.58-.79.46-1.84.66-2.96.66s-1.45-.13-2.1-.33-1.25-.46-1.78-.85c-.46-.39-.85-.92-1.18-1.51-.26-.59-.46-1.32-.46-2.1h0c0-.92.13-1.64.46-2.24s.72-1.12,1.32-1.58c.59-.39,1.25-.72,1.97-.92.79-.2,1.64-.33,2.5-.33s1.71,0,2.37.2c.66.13,1.32.26,1.91.46v-.39c0-1.05-.33-1.91-.99-2.43-.66-.59-1.58-.85-2.83-.85s-1.64.07-2.37.26c-.66.2-1.38.39-2.1.72l-.99-2.83c.85-.39,1.71-.72,2.63-.92.92-.26,1.97-.33,3.22-.33,2.3,0,4.01.59,5.13,1.71,1.12,1.12,1.64,2.7,1.64,4.8v9.14h.13ZM28.08,15.94v-.99c-.46-.2-.99-.33-1.58-.46s-1.25-.2-1.91-.2c-1.12,0-1.97.2-2.63.66-.59.46-.92,1.05-.92,1.84h0c0,.79.26,1.38.85,1.78.59.39,1.32.59,2.1.59s1.12-.07,1.58-.26c.53-.13.92-.39,1.32-.66s.66-.66.85-1.05.33-.85.33-1.32v.07ZM48.92,6.14l-6.11,15.85c-.33.79-.66,1.45-.99,2.04-.33.53-.72.99-1.12,1.32s-.85.59-1.32.79c-.46.13-1.05.26-1.64.26s-1.38-.07-1.97-.26c-.59-.13-1.12-.39-1.64-.66l1.18-2.63c.33.2.66.33.99.39.33.13.72.2,1.05.2s.92-.13,1.25-.39c.33-.26.66-.72.92-1.38l-6.44-15.39h3.75l4.41,11.44,4.01-11.44h3.68s0-.13,0-.13ZM74.5,21.52h-3.48v-1.91c-.53.59-1.18,1.12-2.04,1.58-.79.46-1.84.66-2.96.66s-1.45-.13-2.1-.33-1.25-.46-1.78-.85c-.46-.39-.85-.92-1.18-1.51-.26-.59-.46-1.32-.46-2.1h0c0-.92.13-1.64.46-2.24s.72-1.12,1.32-1.58c.59-.39,1.25-.72,1.97-.92.79-.2,1.64-.33,2.5-.33s1.71,0,2.37.2c.66.13,1.32.26,1.91.46v-.39c0-1.05-.33-1.91-.99-2.43-.66-.59-1.58-.85-2.83-.85s-1.64.07-2.37.26c-.66.2-1.38.39-2.1.72l-.99-2.83c.85-.39,1.71-.72,2.63-.92.92-.26,1.97-.33,3.22-.33,2.3,0,4.01.59,5.13,1.71,1.12,1.12,1.64,2.7,1.64,4.8v9.14h.13ZM71.08,15.94v-.99c-.46-.2-.99-.33-1.58-.46s-1.25-.2-1.91-.2c-1.12,0-1.97.2-2.63.66s-.92,1.05-.92,1.84h0c0,.79.26,1.38.85,1.78.59.39,1.32.59,2.1.59s1.12-.07,1.58-.26c.53-.13.92-.39,1.32-.66s.66-.66.85-1.05.33-.85.33-1.32v.07ZM88.57,16.99c0,.79-.13,1.51-.46,2.1-.26.59-.72,1.12-1.25,1.51-.53.39-1.12.72-1.84.92-.72.2-1.45.26-2.24.26s-2.24-.2-3.42-.59c-1.12-.39-2.17-.99-3.16-1.71l1.58-2.37c.85.59,1.71,1.12,2.56,1.45.85.33,1.71.46,2.5.46s1.32-.13,1.78-.46.66-.72.66-1.25h0c0-.33-.07-.59-.26-.79-.2-.2-.46-.39-.79-.53-.33-.2-.66-.33-1.12-.46-.39-.13-.85-.26-1.32-.39-.59-.2-1.12-.39-1.71-.59-.59-.2-1.05-.46-1.58-.79-.46-.33-.79-.79-1.12-1.25-.26-.53-.46-1.12-.46-1.84h0c0-.79.13-1.45.39-2.04.26-.59.66-1.05,1.18-1.51.53-.39,1.12-.72,1.78-.92.66-.2,1.38-.33,2.17-.33s1.97.13,2.96.46,1.91.72,2.7,1.32l-1.38,2.5c-.72-.46-1.51-.79-2.24-1.05-.79-.26-1.45-.39-2.1-.39s-1.25.13-1.58.46c-.39.26-.53.66-.53,1.12h0c0,.33.07.59.26.79.2.2.46.39.79.53s.72.33,1.12.46c.46.13.85.26,1.32.39.59.2,1.12.39,1.71.59.59.26,1.05.53,1.51.85s.85.72,1.12,1.25c.26.46.46,1.05.46,1.78h0v.07h0ZM94.15,9.16v7.56c0,.66.2,1.18.53,1.51.33.26.79.46,1.38.46s1.51-.2,2.17-.53v2.89c-.46.26-.92.46-1.45.59s-1.12.2-1.78.2-1.25-.07-1.78-.26c-.53-.13-1.05-.39-1.45-.79-.39-.33-.72-.79-.92-1.38-.2-.59-.33-1.32-.33-2.17v-8.09h0v-3.02h0V1.93h3.55v4.21h4.14v3.02h-4.14.07,0Z"></path><path class="cls-2" d="M55.85,6.18h4.08v2.92h-4.02v12.36h-3.53v-12.36h-1.95v-2.94h1.95v-1.11c0-1.71.41-2.97,1.22-3.79.82-.84,1.98-1.25,3.5-1.25.62,0,1.16.04,1.6.12.45.08.86.17,1.25.29v2.97c-.35-.12-.69-.2-1.02-.26-.31-.08-.66-.12-1.05-.12-1.36,0-2.04.78-2.04,2.33v.85Z"></path></g></g><g><path class="cls-2" d="M67.39,33.45c0-.24-.04-.46-.12-.67-.07-.21-.18-.39-.32-.54-.14-.15-.32-.27-.53-.36s-.45-.14-.74-.14c-.25,0-.5.04-.72.14-.23.09-.42.21-.59.36-.16.15-.3.33-.41.54-.11.21-.17.43-.18.67h3.59ZM68.61,33.93v.2c0,.07,0,.14,0,.2h-4.8c0,.25.06.49.17.72.11.23.25.42.43.58.18.16.38.29.62.39.24.09.48.14.74.14.41,0,.76-.09,1.06-.27.3-.18.53-.4.7-.66l.84.67c-.33.43-.7.74-1.14.95-.43.2-.93.3-1.46.3-.46,0-.88-.07-1.27-.23-.39-.15-.72-.36-1.01-.64-.28-.27-.5-.61-.66-1-.16-.39-.25-.82-.25-1.3s.08-.9.24-1.3c.15-.4.38-.74.66-1.02.28-.28.62-.5,1-.66.38-.15.8-.24,1.23-.24s.84.07,1.21.22c.36.14.67.35.92.63.25.27.45.6.58.99.15.41.21.84.21,1.32h0Z"></path><path class="cls-2" d="M80.72,31.02l-1.37,4.66-1.48-4.66h-1.26l-1.45,4.66-1.38-4.66h-1.3l2.02,6.05h1.24l1.48-4.54h.03l1.49,4.54h1.25l2-6.05h-1.26Z"></path><path class="cls-2" d="M87.13,34.03c0-.29-.04-.56-.14-.82-.09-.27-.22-.49-.39-.69-.17-.2-.38-.35-.64-.48-.25-.12-.54-.18-.86-.18s-.61.06-.86.18c-.25.12-.46.28-.64.48-.17.21-.3.43-.39.69-.09.27-.14.54-.14.82s.04.56.14.82c.09.26.22.5.39.7.17.2.38.36.64.48.25.12.54.18.86.18s.61-.06.86-.18c.25-.12.46-.28.64-.48.17-.2.3-.43.39-.7.1-.26.14-.53.14-.82ZM88.39,34.02c0,.47-.08.9-.25,1.29-.16.39-.4.72-.69,1.02-.29.28-.64.51-1.03.66-.4.15-.82.24-1.29.24s-.89-.08-1.29-.24c-.4-.15-.74-.38-1.03-.66-.29-.28-.52-.63-.68-1.02-.16-.39-.25-.82-.25-1.29s.08-.9.25-1.28c.16-.39.39-.72.68-1,.29-.28.64-.5,1.03-.66.4-.15.82-.24,1.29-.24s.89.08,1.29.24c.4.15.74.37,1.03.66.29.28.53.62.69,1,.17.39.25.82.25,1.28Z"></path><path class="cls-2" d="M94.2,29.15h-1.2v7.92h1.2v-7.92Z"></path><path class="cls-2" d="M71.99,31.93v-.92h-1.51v-1.87h-1.19v6.13c0,.63.15,1.1.45,1.42.3.32.74.47,1.31.47.19,0,.36-.02.54-.04.14-.03.27-.06.39-.1v-.99c-.09.04-.19.06-.3.09-.13.03-.25.04-.35.04-.3,0-.52-.08-.66-.24-.14-.15-.2-.42-.2-.78v-3.21h1.51s0,0,0,0Z"></path><path class="cls-2" d="M91.98,30.85c-.41,0-.77.11-1.1.33-.33.22-.62.5-.78.86v-1.03h-1.13v6.05h1.2v-3.18c0-.25.04-.5.1-.74.06-.24.17-.43.31-.62.14-.18.32-.32.53-.43.21-.11.46-.16.75-.16.19,0,.37.02.54.06v-1.11c-.12-.03-.26-.04-.43-.04h0Z"></path><path class="cls-2" d="M61.81,32.35c-.09-.3-.23-.55-.42-.78-.19-.22-.42-.4-.7-.53-.28-.13-.62-.2-1.01-.2-.22,0-.43.03-.64.09-.2.06-.39.14-.56.25-.17.11-.32.23-.45.37-.14.14-.27.29-.35.45v-.99h-1.13v6.05h1.2v-3.22c0-.6.15-1.09.45-1.44.3-.36.69-.54,1.16-.54.28,0,.51.06.69.15.18.1.32.24.42.41.1.17.17.36.21.59.04.22.06.45.06.7v3.35h1.21v-3.75c0-.35-.04-.67-.14-.97h0Z"></path><path class="cls-2" d="M96.75,31.02h1.48l-2.55,3.05,2.51,3h-1.48l-2.52-3,2.55-3.05Z"></path><path class="cls-2" d="M44.34,36.12c.3,0,.57-.05.81-.15.24-.11.44-.25.61-.42.17-.18.29-.4.39-.65.09-.26.14-.53.14-.83s-.05-.57-.14-.82c-.09-.26-.22-.47-.39-.65-.17-.18-.37-.32-.61-.42-.24-.11-.51-.16-.81-.16s-.57.05-.81.16c-.24.1-.44.24-.61.42-.17.17-.29.39-.39.65-.09.25-.14.52-.14.82s.05.57.14.83c.09.25.22.46.39.65.17.17.37.31.61.42.24.1.51.15.81.15ZM41.29,27.64h1.12v4.34h.03c.2-.31.48-.54.86-.72.37-.18.77-.27,1.19-.27.45,0,.86.08,1.23.24.37.16.69.38.94.66.27.27.47.6.61.98.14.37.21.78.21,1.22s-.07.84-.21,1.22c-.14.37-.34.7-.61.98-.26.28-.57.5-.94.66-.36.16-.77.24-1.23.24-.4,0-.78-.09-1.17-.26-.37-.17-.67-.42-.88-.73h-.03v.84h-1.12v-9.38h0Z"></path><path class="cls-2" d="M47.55,31.14h1.29l1.75,4.59h.03l1.66-4.59h1.2l-2.79,7.15c-.1.26-.2.49-.31.69-.11.21-.24.4-.39.54-.15.15-.33.27-.54.35-.21.08-.46.12-.77.12-.17,0-.33-.01-.51-.04-.17-.02-.33-.06-.48-.12l.14-1.02c.22.09.45.14.67.14.17,0,.32-.03.43-.07.12-.04.23-.11.31-.2.09-.08.17-.18.22-.3.06-.12.12-.25.17-.4l.36-.93-2.44-5.92h0Z"></path></g></g></g></svg> 